<svg width="256" height="256" viewBox="0 0 256 256" fill="none" xmlns="http://www.w3.org/2000/svg">
<g clip-path="url(#clip0_5_22)">
<rect width="256" height="256" rx="64" fill="#10B981"/>
<path d="M152.894 160.509C155.169 154.769 159.998 149.929 166.173 149.929H166.522C173.504 149.929 179.181 155.964 177.016 162.602C175.847 166.184 174.289 169.547 172.341 172.692C168.239 179.255 162.526 184.411 155.202 188.161C147.878 191.911 139.001 193.786 128.571 193.786C120.544 193.786 113.308 192.38 106.862 189.567C100.476 186.696 94.9971 182.624 90.4268 177.351C85.915 172.019 82.458 165.632 80.0557 158.19C77.6533 150.69 76.4521 142.282 76.4521 132.966V123.21C76.4521 113.894 77.6826 105.485 80.1436 97.9854C82.6045 90.4854 86.1201 84.0986 90.6904 78.8252C95.3193 73.4932 100.856 69.3916 107.302 66.5205C113.806 63.6494 121.071 62.2139 129.099 62.2139C139.528 62.2139 148.347 64.1475 155.554 68.0146C162.761 71.8232 168.356 77.0674 172.341 83.7471C174.224 86.9044 175.754 90.2843 176.93 93.8867C179.124 100.605 173.438 106.774 166.37 106.774C160.151 106.774 155.278 101.885 153.142 96.044C152.76 94.9987 152.333 94.0052 151.862 93.0635C150.046 89.3135 147.292 86.4717 143.601 84.5381C139.968 82.5459 135.134 81.5498 129.099 81.5498C124.411 81.5498 120.28 82.4287 116.706 84.1865C113.19 85.9443 110.261 88.5811 107.917 92.0967C105.573 95.5537 103.815 99.8896 102.644 105.104C101.472 110.261 100.886 116.237 100.886 123.034V132.966C100.886 139.47 101.413 145.3 102.468 150.456C103.522 155.612 105.163 159.978 107.39 163.552C109.616 167.126 112.487 169.851 116.003 171.726C119.519 173.601 123.708 174.538 128.571 174.538C134.489 174.538 139.294 173.601 142.985 171.726C146.735 169.851 149.577 167.097 151.511 163.464C152.019 162.536 152.48 161.551 152.894 160.509Z" fill="white"/>
</g>
<defs>
<clipPath id="clip0_5_22">
<rect width="256" height="256" fill="white"/>
</clipPath>
</defs>
</svg>
